<svg xmlns="http://www.w3.org/2000/svg" viewBox="0 0 1684.44 1634.23"><defs><style>.cls-1{fill:#2c4482;}.cls-11,.cls-2,.cls-4{fill:#a5dbff;}.cls-2{opacity:0.25;}.cls-3{fill:#003873;}.cls-5{fill:#13191f;}.cls-6{fill:#5cb3ff;}.cls-7{fill:#d9e0e8;}.cls-8{fill:#a6b7c9;}.cls-9{fill:#4a70d6;}.cls-10{fill:#0a6fe8;}.cls-11{opacity:0.5;}.cls-12,.cls-14{fill:#fff;}.cls-13{fill:#ffc2b0;}.cls-14{opacity:0.46;}.cls-15{fill:#513554;}.cls-16{fill:#fcfeff;}.cls-17{fill:#715154;}.cls-18{fill:#0253b6;}.cls-19{fill:#6784a2;}.cls-20{fill:#485e75;}.cls-21{fill:#dea749;}.cls-22{fill:#5b5b84;}</style></defs><g id="Layer_2" data-name="Layer 2"><g id="image"><polygon class="cls-1" points="1235 1561.76 1460.57 1431.53 1479.26 1442.32 1253.69 1572.55 1235 1561.76"/><path class="cls-2" d="M1211.48,1320.61,332.11,812.9c-10.18-5.88-8.89-16.24,2.86-23L756.35,546.59c11.75-6.78,29.7-7.53,39.88-1.65l879.37,507.71c10.18,5.87,8.89,16.23-2.86,23L1251.36,1319C1239.6,1325.74,1221.66,1326.48,1211.48,1320.61Z"/><path class="cls-3" d="M1500,582.2c11.72,6.77,19.59,22.33,17.58,34.76l-91.26,564c-2,12.44-13.14,17-24.86,10.25L537.59,692.51c-11.73-6.77-19.6-22.33-17.59-34.76l91.25-564c2-12.44,13.14-17,24.86-10.26Z"/><path class="cls-4" d="M1542.63,598.56v-.09c0-.32,0-.64,0-1s0-.64,0-1c0,0,0-.09,0-.13a.66.66,0,0,1,0-.14l-.06-.67c0-.31-.06-.63-.1-.94,0-.15,0-.3-.07-.45a1.36,1.36,0,0,0,0-.2c0-.1,0-.2,0-.3,0-.32-.1-.63-.16-1l-.18-.89v-.06c-.07-.32-.15-.64-.23-1s-.16-.63-.24-.94c0-.08,0-.17-.08-.25a1.21,1.21,0,0,0,0-.18l-.15-.51c-.09-.3-.19-.6-.29-.9s-.15-.45-.23-.68a.36.36,0,0,0,0-.09l0-.1c-.1-.29-.21-.57-.32-.85l-.33-.82c-.05-.11-.1-.23-.14-.34l-.07-.15c0-.1-.09-.21-.13-.32l-.39-.84c-.13-.27-.26-.55-.4-.83l0-.07-.06-.13-.45-.87-.46-.8-.3-.54-.14-.25c-.26-.43-.53-.85-.8-1.27-.09-.14-.17-.28-.27-.41a.25.25,0,0,0,0-.07c-.35-.53-.71-1-1.09-1.56l-.17-.21a2.43,2.43,0,0,0-.14-.2c-.14-.17-.27-.35-.4-.52l-.69-.85-.27-.31c0-.06-.09-.11-.13-.16l-.26-.3-.69-.77-.54-.56a.47.47,0,0,0-.1-.1l-.08-.1-.77-.75q-.39-.39-.81-.75v0h0c-.26-.24-.53-.47-.8-.7s-.56-.47-.85-.69l-.11-.08-.12-.1-.63-.48c-.28-.21-.57-.41-.86-.61l-.25-.16-.08-.06h0l-.52-.34c-.29-.19-.58-.37-.88-.54l-4.75-2.73-26,14.08s6.22,3.61,6.51,3.8l.87.57c.29.2.58.4.86.61s.58.43.86.66l.35.28c.45.37.9.75,1.33,1.14h0q.66.6,1.29,1.23l.16.16c.4.4.79.82,1.18,1.25l.17.19c.38.42.74.85,1.1,1.29l.19.23c.35.44.69.88,1,1.34.17.23.34.47.5.71s.41.57.6.87.44.69.66,1l.42.67c.12.2.23.41.34.61q.32.54.6,1.08l.16.29c.26.51.51,1,.75,1.52l.06.13c.24.54.48,1.08.7,1.63a1.11,1.11,0,0,1,.07.16c.22.54.42,1.07.61,1.61l.07.21c.18.53.36,1.06.51,1.6a2.17,2.17,0,0,1,.07.24c.16.53.3,1.06.42,1.6l.06.24c.13.54.24,1.07.33,1.61a1.85,1.85,0,0,1,0,.23q.15.81.24,1.62a1.49,1.49,0,0,1,0,.21c.07.54.11,1.09.14,1.62,0,.27,0,.54,0,.81s0,.64,0,1,0,.67,0,1,0,.66-.06,1-.07.71-.11,1.07l-.12.82s-.09.54-.24,1.48l-90,555.93c-.43,2.64-10.67,19.56-8.36,18.21l24.6-20.85a28.63,28.63,0,0,0,9.76-17.27L1541.25,609c.43-2.64,1.07-6.61,1.07-6.61l.12-.82c0-.23,0-.47.07-.7,0,0,0,0,0,0a.31.31,0,0,1,0-.1,1.79,1.79,0,0,1,0-.23q0-.5.06-1c0-.27,0-.53,0-.8Z"/><path class="cls-4" d="M1529.9,499.13,673.71,4.81h0l-.06,0L672.38,4h0l-2.26-1.3-.88-.45-.9-.43-.9-.38-.93-.35Q666,1,665.57.83l-1-.27-.06,0h0l-.09,0-.85-.19-.44-.07L662.78.2l-.28,0c-.35,0-.7-.08-1-.11h-.1c-.41,0-.82,0-1.22,0H660l-.55,0c-.21,0-.43,0-.64,0l-.19,0c-.29,0-.58.08-.87.13s-.32,0-.48.06l-.1,0a15.56,15.56,0,0,0-1.69.46l-.12,0-.17.08a13.26,13.26,0,0,0-2.06.94L628,16.44a14.24,14.24,0,0,1,2-.93l.81-.26c.33-.1.66-.2,1-.27s.81-.16,1.23-.22l.47-.07a16.84,16.84,0,0,1,1.75-.07h.34a16.68,16.68,0,0,1,1.84.15l.14,0a19.21,19.21,0,0,1,2,.41l.16,0c.66.18,1.32.39,2,.64l.2.07c.71.28,1.42.58,2.14.94l.88.45.68.38,4.74,2.74h0l857.52,495.09a3.15,3.15,0,0,0,3.17,0l18.82-10.93A3.17,3.17,0,0,0,1529.9,499.13ZM665.25,6.34Z"/><path class="cls-4" d="M1553.08,532.83v-.08c0-.32,0-.64,0-1s0-.64,0-1c0-.05,0-.09,0-.14a.62.62,0,0,0,0-.13c0-.22,0-.45,0-.67s-.06-.63-.1-.95c0-.15,0-.3-.07-.45l0-.19c0-.1,0-.2,0-.3,0-.32-.1-.64-.16-1l-.18-.9v-.06c-.07-.31-.14-.63-.22-1s-.16-.63-.25-.94c0-.09-.05-.17-.07-.25s0-.12,0-.18l-.15-.51c-.09-.3-.19-.6-.29-.9s-.15-.45-.23-.68a.3.3,0,0,1,0-.1l0-.1c-.11-.28-.21-.56-.32-.85l-.33-.81-.15-.34-.06-.15c-.05-.11-.09-.22-.14-.32-.12-.28-.25-.56-.38-.84s-.26-.55-.4-.83c0,0,0-.05,0-.08l-.07-.12c-.14-.3-.29-.59-.45-.88s-.3-.53-.45-.8l-.3-.53-.14-.25c-.26-.43-.53-.85-.81-1.27l-.26-.42,0-.06c-.35-.53-.72-1-1.09-1.56l-.17-.22-.15-.19-.39-.52-.69-.85-.27-.32-.14-.16-.25-.3-.69-.76-.54-.57-.1-.1-.09-.09c-.25-.26-.5-.51-.76-.75l-.81-.76h0v0l-.8-.69-.85-.7-.11-.08-.12-.09-.63-.48c-.29-.21-.57-.42-.87-.62l-.24-.16-.08-.05,0,0-.51-.34c-.29-.18-.58-.36-.88-.53l-20.92-12.08-25.67,15.5s22,11.54,22.33,11.72l.86.57c.3.2.58.41.87.62l.86.65.35.29c.45.37.9.74,1.33,1.13h0c.45.39.87.81,1.3,1.23l.16.16c.4.4.79.82,1.17,1.24l.18.2c.37.42.74.84,1.09,1.28l.19.24c.35.43.7.88,1,1.33l.5.72c.2.28.41.57.6.86s.44.69.66,1l.42.68c.12.2.23.4.34.61s.41.71.6,1.08l.15.29c.26.5.52,1,.76,1.52,0,0,0,.08,0,.13.25.53.49,1.08.71,1.62,0,.06,0,.11.07.17.21.53.42,1.07.61,1.61l.07.21q.27.79.51,1.59l.07.25q.22.79.42,1.59l.06.25c.12.53.23,1.07.33,1.6,0,.08,0,.16,0,.24.09.54.17,1.08.24,1.61,0,.07,0,.15,0,.22.06.54.11,1.08.14,1.62,0,.27,0,.54,0,.81s0,.64,0,1,0,.66,0,1l-.06,1c0,.35-.07.71-.11,1.06l-.12.83s-.09.54-.24,1.48l-90,555.93c-.43,2.64-10.67,19.55-8.36,18.21l24.6-20.85a28.62,28.62,0,0,0,9.76-17.28l88.26-545.49c.43-2.64,1.07-6.61,1.07-6.61l.12-.83c0-.23,0-.46.07-.7,0,0,0,0,0,0V535l0-.23.06-1c0-.26,0-.53,0-.79Z"/><path class="cls-5" d="M1509.5,516.48c11.72,6.77,19.59,22.32,17.58,34.76l-91.26,564c-2,12.44-13.14,17-24.86,10.26L547.12,626.78C535.4,620,527.53,604.46,529.54,592L620.79,28c2-12.43,13.14-17,24.86-10.26Z"/><path class="cls-6" d="M1478.65,552.77c11.12,6.3,18.66,19.85,16.84,30.29l-82.55,473.18c-1.81,10.44-12.3,13.78-23.42,7.48L570.18,599.57c-11.12-6.3-18.66-19.86-16.84-30.29L635.87,96.09c1.82-10.43,12.3-13.78,23.42-7.48Z"/><path class="cls-1" d="M1411.85,1229.34l-.19-26.23-33.76,13.06-7.24-16.67-845-487.89c-10.18-5.88-30.4-5.13-42.15,1.65l-366.1,210v-5.84l-55.61,27-7.81-3.16L55,967c.86,5.59,3,7.9,6.46,9.89l879.39,509.05c10.18,5.88,28.14,5.81,39.89-1l421.39-243c6.41-3.7,9.69-8.3,9.7-12.82Z"/><path class="cls-7" d="M940.37,1453.94,61,946.23c-10.17-5.87-8.89-16.23,2.87-23L485.24,679.93c11.75-6.79,29.69-7.53,39.87-1.66L1404.49,1186c10.18,5.88,8.89,16.24-2.87,23L980.24,1452.29C968.49,1459.07,950.55,1459.82,940.37,1453.94Z"/><path class="cls-8" d="M612.66,1208.64,399.84,1085.77c-2.46-1.43-2.15-3.93.69-5.58l102-58.88c2.85-1.64,7.19-1.82,9.65-.4L725,1143.79c2.46,1.42,2.15,3.93-.69,5.57l-102,58.88C619.47,1209.88,615.13,1210.06,612.66,1208.64Z"/><path class="cls-8" d="M537.93,772.34c-1.28.73-3.89.43-5.81-.68l-53.39-30.81c-1.92-1.11-2.45-2.61-1.17-3.35l35.36-20.43c1.29-.74,3.89-.44,5.81.68l53.39,30.8c1.92,1.11,2.45,2.62,1.17,3.36Z"/><path class="cls-8" d="M599.86,864.33c-1.29.74-3.87.45-5.82-.68l-53.39-30.8c-1.92-1.11-2.43-2.61-1.14-3.35l35.38-20.44c1.25-.72,3.84-.43,5.77.68L634,840.54c2,1.13,2.45,2.62,1.2,3.35Z"/><path class="cls-8" d="M568.55,902.52c-1.28.74-3.87.42-5.79-.68L509.36,871c-1.89-1.09-2.46-2.6-1.18-3.34l35.38-20.44c1.25-.73,3.89-.41,5.79.69l53.39,30.81c1.92,1.11,2.45,2.61,1.19,3.34Z"/><path class="cls-8" d="M483.84,909.89c-1.27.73-3.87.43-5.78-.67l-53.39-30.81c-1.91-1.1-2.44-2.61-1.17-3.34l35.37-20.44c1.27-.73,3.9-.43,5.8.67l53.39,30.81c1.91,1.1,2.42,2.61,1.15,3.34Z"/><path class="cls-8" d="M336.92,888.46c-1.28.74-3.88.43-5.8-.68L277.73,857c-1.93-1.11-2.46-2.61-1.18-3.35l41.53-24c1.25-.72,3.88-.43,5.81.68l53.38,30.81c1.93,1.11,2.43,2.62,1.18,3.34Z"/><path class="cls-8" d="M429,941.57c-1.28.74-4.36.16-6.89-1.31L352.13,899.9c-2.5-1.45-3.53-3.24-2.26-4l41.54-24c1.25-.72,4.37-.14,6.88,1.31l69.94,40.36c2.54,1.46,3.52,3.26,2.28,4Z"/><path class="cls-8" d="M888.48,1207.14c-1.06.61-3.49.2-5.41-.91l-53.35-30.78c-1.94-1.13-2.66-2.54-1.6-3.15l15.35-8.87c1.06-.61,3.51-.2,5.46.92l53.34,30.79c1.93,1.11,2.62,2.52,1.57,3.12Z"/><path class="cls-8" d="M959.81,1249.37c-1.06.61-3.48.21-5.41-.9l-53.34-30.79c-1.95-1.12-2.67-2.53-1.61-3.15l15.36-8.87c1.05-.61,3.5-.2,5.45.93l53.35,30.78c1.92,1.11,2.61,2.52,1.56,3.13Z"/><path class="cls-8" d="M1035.44,1292c-1,.59-3.43.16-5.35-1l-53.37-30.79c-1.91-1.11-2.68-2.51-1.66-3.1l14.79-8.55c1-.58,3.46-.14,5.37,1l53.37,30.8c1.92,1.11,2.65,2.5,1.64,3.09Z"/><path class="cls-8" d="M988.93,1233.09c-1,.59-3.43.16-5.35-.95l-53.37-30.8c-1.91-1.1-2.68-2.5-1.66-3.09l14.79-8.55c1-.59,3.46-.15,5.37,1l53.37,30.79c1.92,1.11,2.65,2.51,1.64,3.09Z"/><path class="cls-8" d="M796.21,1153.47c-1.28.74-3.9.42-5.83-.69L443,952.29c-1.89-1.09-2.46-2.61-1.18-3.35l41.53-24c1.25-.72,3.91-.41,5.81.68l347.41,200.48c1.93,1.12,2.45,2.65,1.21,3.37Z"/><path class="cls-8" d="M760.62,1123.08a22,22,0,0,1-2.94-1.54L481.18,962a16.7,16.7,0,0,1-2.64-1.69l2.58-1.49a19.61,19.61,0,0,1,2.93,1.52l276.5,159.57a17.51,17.51,0,0,1,2.66,1.69Z"/><path class="cls-8" d="M419.44,928.33c-.08,0-.33,0-.56-.15l-40.81-23.56c-.22-.12-.34-.27-.26-.32l2.58-1.49a.87.87,0,0,1,.55.16l40.81,23.55c.23.13.35.28.27.32Z"/><path class="cls-8" d="M314.8,863.44a.33.33,0,0,1-.32,0l-17.32-10c-.09,0-.11-.13,0-.18l2.58-1.49a.33.33,0,0,1,.32,0l17.32,10c.1.05.11.14,0,.18Z"/><path class="cls-8" d="M557,952.09c-1.26.73-3.87.43-5.8-.69l-53.38-30.8c-1.9-1.1-2.45-2.62-1.19-3.35L532,896.81c1.26-.73,3.92-.42,5.81.68l53.38,30.8c1.94,1.12,2.45,2.63,1.18,3.36Z"/><path class="cls-8" d="M630.53,994.51c-1.27.73-3.89.42-5.78-.67L571.37,963c-1.92-1.1-2.46-2.62-1.19-3.35l35.37-20.44c1.27-.73,3.91-.42,5.82.68l53.38,30.81c1.9,1.09,2.42,2.61,1.15,3.34Z"/><path class="cls-8" d="M704,1036.93c-1.26.73-3.88.43-5.78-.67l-53.39-30.81c-1.91-1.1-2.43-2.61-1.17-3.34l35.38-20.44c1.27-.73,3.89-.43,5.79.67l53.39,30.81c1.91,1.1,2.42,2.61,1.16,3.34Z"/><path class="cls-8" d="M777.55,1079.35c-1.26.73-3.86.44-5.78-.67l-53.39-30.81c-1.93-1.12-2.45-2.62-1.19-3.35l35.38-20.44c1.26-.73,3.88-.44,5.81.68l53.39,30.81c1.92,1.11,2.43,2.61,1.16,3.35Z"/><path class="cls-8" d="M851.07,1121.78c-1.26.73-3.89.42-5.82-.7l-53.37-30.8c-1.91-1.1-2.43-2.6-1.17-3.33l35.38-20.44c1.27-.73,3.89-.44,5.79.66l53.37,30.8c1.93,1.12,2.47,2.64,1.2,3.37Z"/><path class="cls-8" d="M924.59,1164.17c-1.26.73-3.88.43-5.8-.68l-53.37-30.8c-1.92-1.11-2.45-2.62-1.19-3.35l35.38-20.44c1.27-.73,3.89-.43,5.81.68l53.38,30.8c1.91,1.11,2.44,2.62,1.17,3.35Z"/><path class="cls-8" d="M1090.17,1259.72c-1.27.73-3.88.43-5.8-.68l-145.45-83.93c-1.92-1.11-2.44-2.62-1.18-3.35l35.38-20.44c1.27-.73,3.88-.43,5.81.68l145.45,83.93c1.92,1.11,2.43,2.62,1.16,3.35Z"/><path class="cls-8" d="M641.7,944.7c-1.28.74-3.83.45-5.76-.67l-53.4-30.81c-1.92-1.11-2.45-2.6-1.17-3.34l35.38-20.44c1.26-.72,3.86-.43,5.78.68l53.39,30.81c1.93,1.12,2.42,2.61,1.17,3.33Z"/><path class="cls-8" d="M715.23,987.13c-1.28.74-3.88.42-5.78-.67L656,955.63c-1.9-1.09-2.44-2.58-1.16-3.32l35.39-20.44c1.25-.73,3.86-.43,5.75.67l53.42,30.82c1.9,1.1,2.43,2.61,1.18,3.33Z"/><path class="cls-8" d="M788.74,1029.55c-1.28.75-3.88.42-5.79-.68l-53.38-30.8c-1.89-1.1-2.48-2.61-1.2-3.36l35.39-20.44c1.25-.72,3.9-.39,5.79.7l53.38,30.8c1.91,1.1,2.45,2.62,1.2,3.34Z"/><path class="cls-8" d="M862.24,1072c-1.28.74-3.87.43-5.78-.68l-53.38-30.8c-1.92-1.11-2.46-2.6-1.18-3.34l35.38-20.45c1.25-.72,3.86-.42,5.79.69l53.37,30.8c1.92,1.11,2.44,2.61,1.19,3.34Z"/><path class="cls-8" d="M935.78,1114.37c-1.28.75-3.87.43-5.78-.67l-53.41-30.82c-1.92-1.11-2.45-2.6-1.17-3.34l35.39-20.44c1.25-.72,3.84-.43,5.77.68L970,1090.6c1.91,1.1,2.44,2.61,1.19,3.33Z"/><path class="cls-8" d="M1009.27,1156.78c-1.28.74-3.86.43-5.77-.67l-53.37-30.8c-1.94-1.12-2.48-2.61-1.2-3.35l35.38-20.44c1.25-.73,3.86-.42,5.8.69l53.37,30.8c1.91,1.11,2.43,2.61,1.18,3.33Z"/><path class="cls-8" d="M1082.78,1199.2c-1.28.75-3.87.43-5.77-.67l-53.41-30.82c-1.91-1.1-2.44-2.58-1.15-3.32l35.38-20.45c1.25-.72,3.85-.43,5.75.67l53.41,30.82c1.91,1.1,2.43,2.61,1.18,3.33Z"/><path class="cls-8" d="M673,906.52c-1.29.74-3.89.44-5.82-.67L613.83,875c-1.9-1.1-2.43-2.6-1.14-3.34l35.38-20.44c1.26-.72,3.86-.43,5.76.67l53.39,30.81c1.93,1.11,2.44,2.61,1.19,3.34Z"/><path class="cls-8" d="M746.53,948.93c-1.29.75-3.9.44-5.8-.66l-53.39-30.81c-1.92-1.1-2.45-2.61-1.16-3.35l35.38-20.44c1.26-.73,3.87-.42,5.79.68l53.38,30.81c1.9,1.1,2.43,2.61,1.17,3.33Z"/><path class="cls-8" d="M820,991.36c-1.29.74-3.89.44-5.82-.68l-53.38-30.8c-1.91-1.1-2.43-2.6-1.14-3.35l35.38-20.43c1.26-.73,3.86-.43,5.77.67l53.38,30.8c1.93,1.12,2.45,2.62,1.19,3.35Z"/><path class="cls-8" d="M893.54,1033.77c-1.29.75-3.87.45-5.8-.66l-53.39-30.81c-1.92-1.11-2.45-2.61-1.16-3.36l35.38-20.43c1.26-.73,3.86-.43,5.79.68L927.75,1010c1.93,1.11,2.42,2.61,1.17,3.33Z"/><path class="cls-8" d="M967.07,1076.17c-1.29.74-3.89.44-5.78-.65l-53.39-30.81c-1.94-1.12-2.45-2.61-1.16-3.36l35.38-20.43c1.26-.73,3.85-.44,5.78.68l53.39,30.81c1.89,1.09,2.41,2.59,1.16,3.32Z"/><path class="cls-8" d="M1040.6,1118.6c-1.29.74-3.9.44-5.84-.68l-53.38-30.8c-1.89-1.1-2.43-2.61-1.14-3.35l35.38-20.44c1.25-.73,3.88-.42,5.77.67l53.38,30.81c1.94,1.12,2.46,2.63,1.21,3.35Z"/><path class="cls-8" d="M1114.09,1161c-1.29.75-3.89.44-5.8-.66l-53.39-30.81c-1.92-1.11-2.44-2.61-1.15-3.35l35.38-20.44c1.25-.72,3.85-.43,5.78.68l53.39,30.81c1.9,1.1,2.43,2.61,1.17,3.33Z"/><path class="cls-8" d="M526.35,821.91c-1.29.74-3.89.44-5.82-.67L430,769c-1.92-1.11-2.45-2.62-1.16-3.36l35.38-20.44c1.25-.72,3.86-.42,5.79.69l90.52,52.24c1.92,1.11,2.45,2.61,1.19,3.34Z"/><path class="cls-8" d="M1236.31,1175.3c-1.27.73-3.88.43-5.8-.68L1140,1122.38c-1.89-1.09-2.44-2.61-1.16-3.35l35.37-20.43c1.28-.74,3.9-.42,5.79.67l90.53,52.24c1.92,1.11,2.45,2.61,1.17,3.35Z"/><path class="cls-8" d="M495,860.09c-1.28.74-3.85.44-5.79-.68L381.32,797.13c-1.93-1.11-2.47-2.61-1.19-3.35l35.38-20.44c1.25-.72,3.86-.42,5.79.69l107.91,62.28c1.95,1.12,2.45,2.61,1.2,3.34Z"/><path class="cls-8" d="M410.35,867.48c-1.26.73-3.88.43-5.8-.68L332.6,825.28c-1.93-1.12-2.45-2.62-1.19-3.35l35.38-20.44c1.27-.73,3.88-.44,5.81.68l71.95,41.52c1.93,1.11,2.45,2.62,1.18,3.35Z"/><path class="cls-8" d="M611.42,814.75c-1.28.74-3.87.44-5.82-.68l-53.35-30.79c-1.92-1.11-2.45-2.62-1.17-3.35l35.36-20.43c1.28-.74,3.89-.44,5.81.67L645.6,791c1.95,1.12,2.47,2.62,1.19,3.36Z"/><path class="cls-8" d="M684.61,857c-1.28.74-3.89.43-5.82-.68l-53.38-30.81c-1.91-1.1-2.45-2.61-1.17-3.35l35.36-20.43c1.28-.74,3.9-.43,5.81.67l53.38,30.81c1.93,1.11,2.47,2.62,1.18,3.36Z"/><path class="cls-8" d="M758.09,899.35c-1.28.74-3.86.45-5.79-.66l-53.39-30.81c-1.91-1.1-2.43-2.61-1.16-3.34l35.37-20.43c1.28-.74,3.88-.44,5.79.66l53.39,30.81c1.93,1.12,2.43,2.6,1.15,3.34Z"/><path class="cls-8" d="M831.62,941.79c-1.28.74-3.89.43-5.81-.68l-53.35-30.79c-1.94-1.11-2.46-2.62-1.18-3.35l35.36-20.43c1.29-.75,3.88-.44,5.82.67L865.81,918c1.92,1.11,2.46,2.62,1.18,3.36Z"/><path class="cls-8" d="M905.1,984.19c-1.27.74-3.84.46-5.78-.66L846,952.73c-1.94-1.11-2.46-2.62-1.18-3.35L880.13,929c1.29-.75,3.88-.44,5.82.67l53.37,30.81c1.94,1.11,2.43,2.59,1.15,3.33Z"/><path class="cls-8" d="M978.66,1026.6c-1.28.74-3.9.44-5.79-.66l-53.41-30.82c-1.91-1.1-2.43-2.6-1.15-3.34l35.37-20.43c1.28-.74,3.87-.44,5.78.66l53.41,30.82c1.89,1.1,2.43,2.6,1.15,3.34Z"/><path class="cls-8" d="M1052.17,1069c-1.28.73-3.89.43-5.81-.68L993,1037.55c-1.93-1.12-2.47-2.63-1.19-3.37l35.37-20.43c1.28-.74,3.89-.43,5.82.69l53.38,30.8c1.92,1.11,2.45,2.62,1.17,3.36Z"/><path class="cls-8" d="M1125.65,1111.43c-1.27.74-3.86.45-5.77-.65L1066.46,1080c-1.9-1.1-2.42-2.6-1.14-3.33l35.36-20.43c1.29-.74,3.88-.44,5.78.65l53.42,30.83c1.91,1.1,2.42,2.59,1.14,3.33Z"/><path class="cls-8" d="M1168.4,1148.84a8.14,8.14,0,0,0-3.13-1,4.29,4.29,0,0,0-2.62.36l-35.38,20.44a1.2,1.2,0,0,0-.64,1.53,3.85,3.85,0,0,0,1.77,1.8l13.93,8-46.39,26.8a1.19,1.19,0,0,0-.6,1.54,3.85,3.85,0,0,0,1.79,1.8l36,20.76a8.5,8.5,0,0,0,3.14,1,4.38,4.38,0,0,0,2.67-.35L1223,1183a1.19,1.19,0,0,0,.59-1.54,3.8,3.8,0,0,0-1.8-1.81Z"/><path class="cls-8" d="M400.79,850.24c-.08,0-.33,0-.56-.15l-40.81-23.56c-.22-.13-.35-.27-.27-.32l2.58-1.49a.89.89,0,0,1,.56.16l40.81,23.55c.22.13.34.28.27.32Z"/><polygon class="cls-9" points="6.07 757.83 27.91 769.2 34.22 756.94 29.32 731.24 6.07 757.83"/><polygon class="cls-1" points="398.01 270.7 378.23 260.22 348.69 279.04 376.91 293.15 398.01 270.7"/><path class="cls-3" d="M367.41,261.34,17.25,463.51C7.76,469,0,483.82,0,496.47V743.86c0,12.65,7.76,18.52,17.25,13L367.41,554.74c9.49-5.48,17.25-20.31,17.25-33V274.38C384.66,261.73,376.9,255.86,367.41,261.34Z"/><path class="cls-10" d="M389.34,566.15,39.17,768.32c-9.49,5.48-17.25-.39-17.25-13V507.88c0-12.65,7.76-27.48,17.25-33L389.34,272.75c9.48-5.47,17.25.39,17.25,13v247.4C406.59,545.84,398.82,560.67,389.34,566.15Z"/><path class="cls-4" d="M113.58,633.79,61.76,663.7c-4.53,2.62-8.25-.18-8.25-6.23h0c0-6.05,3.72-13.14,8.25-15.76l51.82-29.91c4.53-2.62,8.24.18,8.24,6.23h0C121.82,624.08,118.11,631.17,113.58,633.79Z"/><path class="cls-4" d="M201.19,583.21l-51.81,29.91c-4.54,2.62-8.25-.19-8.25-6.23h0c0-6,3.71-13.14,8.25-15.76l51.81-29.92c4.54-2.62,8.25.19,8.25,6.24h0C209.44,573.5,205.73,580.59,201.19,583.21Z"/><path class="cls-4" d="M288.8,532.62,237,562.54c-4.54,2.62-8.25-.19-8.25-6.24h0c0-6,3.71-13.14,8.25-15.76l51.81-29.91c4.54-2.62,8.25.19,8.25,6.23h0C297.05,522.91,293.34,530,288.8,532.62Z"/><path class="cls-4" d="M308.74,559.29l-62.21,35.92c-3,1.73-5.45-.12-5.45-4.12h0c0-4,2.45-8.69,5.45-10.42l62.21-35.92c3-1.73,5.46.13,5.46,4.12h0C314.2,552.87,311.74,557.56,308.74,559.29Z"/><path class="cls-4" d="M119.85,484.5,60.3,518.88c-3.73,2.16-6.79-.15-6.79-5.12h0c0-5,3.06-10.81,6.79-13l59.55-34.39c3.73-2.15,6.78.16,6.78,5.13h0C126.63,476.52,123.58,482.35,119.85,484.5Z"/><path class="cls-4" d="M115.68,578.85,64.47,608.41c-6,3.48-11-.24-11-8.28V588.74c0-8,4.93-17.45,11-20.93l51.21-29.56c6-3.48,10.95.24,10.95,8.28v11.39C126.63,566,121.7,575.37,115.68,578.85Z"/><path class="cls-4" d="M215,637.14,59,727.21c-3,1.73-5.46-.13-5.46-4.13h0c0-4,2.46-8.68,5.46-10.41L215,622.6c3-1.73,5.45.12,5.45,4.12h0C220.41,630.72,218,635.41,215,637.14Z"/><path class="cls-4" d="M376.42,482,324.6,512c-4.53,2.62-8.24-.18-8.24-6.23h0c0-6.05,3.71-13.14,8.24-15.76l51.82-29.91c4.53-2.62,8.24.18,8.24,6.23h0C384.66,472.33,381,479.42,376.42,482Z"/><ellipse class="cls-4" cx="359.76" cy="340.74" rx="35.11" ry="20.27" transform="translate(-115.97 479.36) rotate(-59.69)"/><polygon class="cls-11" points="1216.82 407.24 1459.36 541.72 1309.73 1222.34 1066.05 1083.64 1216.82 407.24"/><polygon class="cls-12" points="1189.89 390.7 1029.33 1059.31 1265.65 1196.61 1432.42 525.18 1189.89 390.7"/><ellipse class="cls-10" cx="1157.87" cy="1029.34" rx="62.16" ry="83.02" transform="translate(-373.38 793.83) rotate(-32.89)"/><path class="cls-12" d="M1177.33,997.32c7,3.75,14.72,10.22,19,17.48l-11.33,8.12c-4.94-6.89-9.66-11.38-15.56-13.77-6.89-2.8-10.77-1.42-12.37,3.84-3.6,11.77,29,24.74,22.67,45.32-3.42,11.2-12.93,16.08-25.15,13.55l-3.6,11.78-11.93-4.85,3.53-11.54c-7.56-4.23-12.1-10.19-15.47-16.82l12-5.91c3.28,5.57,6.5,9.06,11.67,11.16,5.9,2.4,9.76,1.53,11.33-3.62,3.31-10.86-29.44-23.14-22.77-45,3.34-11,12.44-16.78,25.88-14.15l3.63-11.89,11.93,4.84Z"/><path class="cls-4" d="M1207.93,474l172.37,95.57c4.63,2.57,9.49.2,10.8-5.26h0c1.31-5.46-1.41-12-6-14.59L1212.7,454.12c-4.63-2.57-9.49-.2-10.81,5.25h0C1200.58,464.83,1203.3,471.4,1207.93,474Z"/><path class="cls-4" d="M1296.29,567.42c.81-2.55,4.71-3.9,7.21-2.51l67.76,37.57c3.88,2.14,6.15,7.64,5,12.2s-5.16,6.54-9,4.4l-68.92-38.22c-3.32-1.84-4.74-5.14-3.66-8.51Z"/><path class="cls-4" d="M1172.34,602.12c.81-2.54,4.71-3.9,7.22-2.51l67.76,37.57c3.87,2.15,6.14,7.64,5,12.21s-5.16,6.54-9,4.39l-68.91-38.21c-3.33-1.84-4.74-5.14-3.66-8.52Z"/><path class="cls-4" d="M1157.49,663.65c.82-2.54,4.72-3.9,7.22-2.51l67.76,37.57c3.88,2.15,6.15,7.64,5,12.21s-5.16,6.54-9,4.39l-68.92-38.21c-3.32-1.84-4.74-5.14-3.66-8.51Z"/><path class="cls-4" d="M1145.77,719.15c.82-2.54,4.72-3.9,7.22-2.51l67.76,37.57c3.88,2.15,6.15,7.64,5,12.21s-5.16,6.54-9,4.39l-68.92-38.21c-3.32-1.84-4.74-5.14-3.66-8.52Z"/><path class="cls-4" d="M1186.9,509.89c.81-2.54,4.71-3.9,7.22-2.51L1261.88,545c3.87,2.15,6.14,7.64,5,12.21s-5.17,6.54-9,4.39L1189,523.34c-3.32-1.84-4.74-5.14-3.66-8.51Z"/><path class="cls-4" d="M1120.52,881.83,1265,961.93c6.83,3.79,14,.3,15.94-7.75l7.18-29.9c1.94-8-2.07-17.74-8.91-21.53l-144.46-80.1c-6.84-3.79-14-.3-15.94,7.75l-7.18,29.9C1109.67,868.35,1113.68,878,1120.52,881.83Z"/><path class="cls-4" d="M1176.94,568.76l182.91,101.42a2.18,2.18,0,0,0,3.28-1.6h0a4.2,4.2,0,0,0-1.84-4.43l-182.9-101.41a2.18,2.18,0,0,0-3.29,1.59h0A4.21,4.21,0,0,0,1176.94,568.76Z"/><path class="cls-4" d="M1128.43,766.36l182.91,101.41a2.17,2.17,0,0,0,3.28-1.59h0a4.2,4.2,0,0,0-1.83-4.43L1129.88,760.33a2.18,2.18,0,0,0-3.28,1.6h0A4.19,4.19,0,0,0,1128.43,766.36Z"/><path class="cls-5" d="M328.53,1418.55l-52.13,10.63-7,18.09c-1.68,13-1.59,19.87,7,26.71,7.23,5.76,22,1.32,29.69-2.27l33.48-20.14c24.82-13.68,22.95-23.81,20.27-32.17h0C355.87,1410,344.39,1412.2,328.53,1418.55Z"/><path class="cls-5" d="M439.23,1482.73l-50.4-17-15.16,12.1c-8,10.36-11.38,16.37-7.39,26.62,3.36,8.61,18.34,12.2,26.81,13l39.07-.55c28.33.67,31.81-9,33.7-17.6h0C467.15,1489.13,456.13,1485.23,439.23,1482.73Z"/><path class="cls-13" d="M261.29,836.7c-28.44,43.1-41,98.08-52.22,147.84-2.43,10.72-3.36,17.12-.51,27.62,9.49,35,20.25,67.64,24.34,104.09,2.06,18.37,31.14,18.58,29.06,0-3.8-33.86-10.32-67.23-21.09-99.59-2-6.1-4.25-12.12-6.57-18.11,2.13,5.49-.72,9.54.39,4.64.69-3.07,1.32-6.15,2-9.21C247.42,946,259,892.83,286.37,851.37c10.33-15.66-14.82-30.23-25.08-14.67Z"/><path class="cls-4" d="M343,1060.5,208.72,1138a9.86,9.86,0,0,1-14.79-8.54V1036a9.86,9.86,0,0,1,4.93-8.54L333.1,949.93a9.87,9.87,0,0,1,14.8,8.54V1052A9.85,9.85,0,0,1,343,1060.5Z"/><path class="cls-12" d="M292.38,1034.1c0,10.83-7.66,24-17.1,29.49s-17.1,1.09-17.1-9.75,7.65-24,17.1-29.49S292.38,1023.26,292.38,1034.1Z"/><path class="cls-13" d="M270.32,1120.74l-9.76,4.42a15,15,0,0,1-19.83-7.47h0a15,15,0,0,1,7.48-19.83l9.76-4.42a15,15,0,0,1,19.83,7.48h0A15,15,0,0,1,270.32,1120.74Z"/><path class="cls-14" d="M383.5,742.64l.2,5.49s.72,16.55-15.57,8-15.79-29.2-15.79-29.2S364.73,725.46,383.5,742.64Z"/><path class="cls-15" d="M368,756.6c21.25,11,20.5-8.27,20.5-8.27l.17.09-.63-6.58c-23.7-20.36-38.77-19.39-38.77-19.39S346.78,745.56,368,756.6Zm-14.84-28.91s12.09-.64,30.23,15.15l.15,4.76s.56,14.35-15.25,6.13S353.18,727.69,353.18,727.69Z"/><polygon class="cls-15" points="396.46 752.03 383.83 746.27 383.15 739.12 395.78 744.88 396.46 752.03"/><path class="cls-15" d="M350.31,727.94l-2.23-1a5,5,0,0,1-2.48-3.8h0c-.15-1.54.72-2.34,1.94-1.78l2.24,1a5.06,5.06,0,0,1,2.48,3.8h0C352.4,727.7,351.53,728.5,350.31,727.94Z"/><path class="cls-15" d="M432,765.22l-2.24-1a5,5,0,0,1-2.47-3.8h0c-.15-1.55.72-2.35,1.94-1.79l2.24,1a5,5,0,0,1,2.47,3.8h0C434.09,765,433.22,765.77,432,765.22Z"/><path class="cls-1" d="M430.2,759.37s-16.64-15.44-38.43-15.83l.63,6.57.17.07s3.05,20.36,24,28.58S430.2,759.37,430.2,759.37Zm-14.5,16a29.06,29.06,0,0,1-17.87-21.24l-.79-5.05c16.64.08,30,12.31,30,12.31S431.31,781.47,415.7,775.35Z"/><path class="cls-1" d="M400.74,757.75h0c-.52-.63-.69-1.43-.36-1.79l3.77-4.16c.32-.35,1-.13,1.54.5h0c.52.63.69,1.42.36,1.78l-3.77,4.16C402,758.6,401.27,758.37,400.74,757.75Z"/><path class="cls-16" d="M355.58,736.25h0c-.53-.63-.69-1.43-.37-1.79l3.77-4.15c.33-.36,1-.14,1.54.49h0c.53.63.69,1.43.37,1.78l-3.77,4.16C356.79,737.1,356.1,736.88,355.58,736.25Z"/><path class="cls-3" d="M327.83,1150c2,16.83,33.92,279.78,35,324,.72,29,45.88,29.12,45.15,0-1.13-45.45,3.8-359.21,3.8-359.21S325.8,1133.16,327.83,1150Z"/><path class="cls-3" d="M262.36,1071c-18.53,8,5.35,311.67,5.66,357,.2,29,45.16,0,45.16,0l29.95-205.38s49.17-13,49.17-81.65C392.3,1136.79,301.27,1054.32,262.36,1071Z"/><path class="cls-13" d="M327.94,837.35l11.81-52.62,32.1,21.6-9.67,47.91C361.24,862,325.62,855.23,327.94,837.35Z"/><path class="cls-13" d="M347.42,708s-32.17-22.41-32.48,32c-.22,37.89,22.79,70.72,53.87,85.51,19.36,9.21,43-2.59,44.08-21.45,4.61-27.52,4.68-53.25-4.35-75.39,1.28-22.75-14.37-14.65-41.42-16.12Z"/><path class="cls-17" d="M329,813.71s-37.21-13.82-33.68-66.18c3.83-56.66,55.94-51.78,84.91-54.56,12.82-1.23,21.74-3.08,34.87,8.64,11.95,10.65.77,34.59-16.35,36.14-6.8.61-3.69,18.91-5.06,25.19-2.44,11.16-9.39,16.62-12,27.44-2.44,10.24-17.54,26.29-27.35,27.42C336.92,819.82,329,813.71,329,813.71Z"/><path class="cls-1" d="M431.15,767l-48,4.6a3.13,3.13,0,0,1-3.4-2.81h0a3.12,3.12,0,0,1,2.8-3.4l48-4.6a3.12,3.12,0,0,1,3.4,2.8h0A3.13,3.13,0,0,1,431.15,767Z"/><path class="cls-13" d="M388.94,906.59c2.45,30,7.22,57.53,19.79,85.08,9,19.8,18.3,48.15,37.85,60.64,44.13,28.19,91.16-44,112-71.49,11.3-14.89-13.91-29.38-25.09-14.66-11.8,15.56-55.4,83.74-77.88,54.33-24-31.4-34.5-75.57-37.63-113.9-1.51-18.5-30.58-18.67-29.05,0Z"/><path class="cls-6" d="M253.08,848.12c-19.23,33.5-33.16,90.13-45.81,136-4.8,12.65-1.77,24.11,6.23,23.6l26.76,3.7c6.6-.42,19.15-14.69,22.23-25.28l33.93-116.6c5.53-19,1.45-35.29-9.42-37.73l-2.47-.37C282.64,824.45,267.57,824.37,253.08,848.12Z"/><path class="cls-12" d="M406.84,867.88c-14.83-8.71-44.7-18.3-61.59-31-30.32-22.9-80.88-20.2-87.1,14.14S243,1060.7,247.81,1092.12c5,32.77,152.23,61.87,166.34,38C427.43,1107.64,434.37,884,406.84,867.88Z"/><path class="cls-6" d="M383,855.88c-36.05-5.42-60.4,17.24-69-34.68h0c5.26-3.26,15.08-1,18.61,4.08,6.18,8.93,16.3,13.92,30.84,12.13a11.45,11.45,0,0,1,11,5.16Z"/><path class="cls-6" d="M374.33,906.24c8.79,74.3,32.21,121.56,64.67,145.59,17.07,9.45,33-17.49,26.51-33.75-32.32-28.73-24.41-54.35-38.24-118.32-2.6-21.35-24.73-22.38-36.27-19.37h0C379,883.53,371.62,894.92,374.33,906.24Z"/><rect class="cls-13" x="520.7" y="941.87" width="41.85" height="59.03" rx="8.49" transform="translate(356.41 2068.04) rotate(-141.27)"/><path class="cls-17" d="M363.3,795.07c-1.79,1.32-5.77,39.21,26.1,33.07s25.43-38,25.43-38-25.29,6.57-32.3-24.8S363.3,795.07,363.3,795.07Z"/><path class="cls-13" d="M390.46,779.41c.77,9-3.81,16.67-10.23,17.22a8.48,8.48,0,0,1-2.08-.07c-5.56-.89-10.26-7.17-10.94-15.16-.77-9,3.81-16.67,10.23-17.22S389.69,770.45,390.46,779.41Z"/><polygon class="cls-1" points="781.36 300.15 829.15 282.44 1063.38 564.23 1004.77 585.5 781.36 300.15"/><path class="cls-18" d="M838.07,471l153.38,88c60.35,34.63,129.44-13.52,124.36-86.66l-.5-7.26c-2.36-33.95-21.06-64.76-49.07-80.84L898.16,287.78c-58.41-33.52-125.29,13.08-120.37,83.88h0C780.68,413.37,803.66,451.23,838.07,471Z"/><path class="cls-10" d="M791,488.37l153.37,88c60.35,34.63,129.44-13.51,124.37-86.66l-.51-7.26c-2.35-33.95-21.06-64.76-49.07-80.83L851.12,305.17c-58.41-33.52-125.28,13.09-120.37,83.89h0C733.65,430.76,756.63,468.62,791,488.37Z"/><ellipse class="cls-6" cx="1049.24" cy="451.99" rx="37.97" ry="55.1" transform="translate(-91.17 383.72) rotate(-19.88)"/><ellipse class="cls-4" cx="1033.97" cy="456.99" rx="37.97" ry="55.1" transform="translate(-93.78 378.83) rotate(-19.88)"/><path class="cls-12" d="M1039.43,469.94a11.74,11.74,0,0,0-6.16-12.46c-2.77-1.52-4.29-1.62-7.46-1.15l-4.37-6.28,5.67-26.65L1054,438.19l-1.66,10.58-17.43-9.58-2.43,9.7a11.6,11.6,0,0,1,5.52,1.65,23.91,23.91,0,0,1,12.45,25.1c-1.9,12-11.14,14.47-20.41,9.37a36.88,36.88,0,0,1-15.56-16.81l6.2-5.21c2.37,4.54,5.35,8.78,9.39,11,4.86,2.66,8.46,1.49,9.34-4.06"/><path class="cls-12" d="M913.91,526l-78.8-44.62c-8.82-5-14.94-17.22-13.58-27.16l.79-63.47c1.35-9.93,9.69-14,18.52-9l102.43,58c8.83,5,15,17.22,13.59,27.16l-16.73,54.4C937.43,531.08,922.74,531,913.91,526Z"/><path class="cls-12" d="M951.25,474.9,825.1,403.47c-6.23-3.53-10.41-13.08-9.3-21.23h0c1.11-8.15,7.12-11.93,13.35-8.4L955.3,445.27c6.23,3.53,10.41,13.08,9.3,21.23h0C963.49,474.65,957.48,478.43,951.25,474.9Z"/><path class="cls-4" d="M852.86,470l-.91-.51c-3.23-1.83-5.4-6.79-4.83-11L851,430.42c.58-4.23,3.7-6.19,6.93-4.36l.91.52c3.23,1.83,5.41,6.78,4.83,11l-3.83,28.07C859.21,469.88,856.09,471.84,852.86,470Z"/><path class="cls-4" d="M879.7,485.21l-.92-.52c-3.23-1.83-5.4-6.78-4.82-11l3.83-28.07c.58-4.22,3.69-6.18,6.92-4.36l.92.52c3.23,1.83,5.4,6.79,4.82,11l-3.83,28.07C886,485.08,882.93,487,879.7,485.21Z"/><path class="cls-4" d="M906.53,500.4l-.91-.51c-3.23-1.83-5.41-6.79-4.83-11l3.83-28.07c.58-4.23,3.7-6.19,6.93-4.36l.91.52c3.23,1.83,5.4,6.78,4.83,11l-3.84,28.07C912.88,500.27,909.76,502.23,906.53,500.4Z"/><path class="cls-12" d="M925.43,463.23h0c3.73,0,7.12-2.79,7.57-6.19L941,396.21a5.21,5.21,0,0,0-2.64-5.29l-66.93-38.15a7.33,7.33,0,0,0-6.79,0,7.19,7.19,0,0,0-4.1,5.36L852.57,419c-.44,3.39,2.21,6.12,5.93,6.12h0c3.73,0,7.12-2.79,7.56-6.19l6.53-50.07,54.34,31-7.47,57.31C919.06,460.5,921.71,463.23,925.43,463.23Z"/><polygon class="cls-12" points="796.02 568.64 760.68 548.24 768.29 511.31 803.63 531.71 796.02 568.64"/><polygon class="cls-12" points="930.69 639.08 811.12 570.05 815.39 549.35 934.96 618.38 930.69 639.08"/><polygon class="cls-12" points="786.24 622.9 750.9 602.5 758.51 565.58 793.85 585.98 786.24 622.9"/><polygon class="cls-12" points="920.91 693.35 801.34 624.32 805.61 603.61 925.18 672.64 920.91 693.35"/><polygon class="cls-12" points="777.22 677.94 741.88 657.54 749.49 620.62 784.83 641.02 777.22 677.94"/><polygon class="cls-12" points="911.89 748.39 792.32 679.36 796.59 658.65 916.16 727.68 911.89 748.39"/><polygon class="cls-19" points="1520.79 1511.63 1357.13 1417.14 1357.13 1325.53 1520.79 1322.66 1520.79 1511.63"/><polygon class="cls-20" points="1684.44 1417.14 1520.79 1511.63 1520.79 1322.66 1684.44 1325.53 1684.44 1417.14"/><polygon class="cls-8" points="1520.33 1420.28 1356.21 1325.53 1520.32 1230.77 1684.44 1325.53 1520.33 1420.28"/><polygon class="cls-7" points="1403.16 1443.72 1405.37 1353.91 1441.66 1374.86 1438.96 1464.38 1403.16 1443.72"/><polygon class="cls-12" points="1405.37 1353.91 1566.18 1257.25 1602.62 1278.28 1441.66 1374.86 1405.37 1353.91"/><polygon class="cls-12" points="1644.64 1319.43 1603.04 1343.45 1587 1334.19 1628.61 1310.17 1644.64 1319.43"/><path class="cls-4" d="M1329.45,352.83,1250.73,378a8.2,8.2,0,0,1-10.13-10.79l33.73-86.38Z"/><polygon class="cls-21" points="1292.29 210.24 1326.91 197.42 1496.52 401.48 1454.08 416.87 1292.29 210.24"/><polygon class="cls-22" points="1375.07 257.68 1409.68 244.86 1579.3 448.92 1536.86 464.31 1375.07 257.68"/><path class="cls-6" d="M1333.37,333.94l111.06,63.73c43.71,25.08,93.74-9.79,90.06-62.76l-.36-5.25c-1.71-24.59-15.26-46.9-35.54-58.54l-121.71-69.84c-42.3-24.27-90.73,9.47-87.17,60.74h0C1291.81,292.23,1308.45,319.64,1333.37,333.94Z"/><path class="cls-6" d="M1416.14,381.38l111.07,63.73c43.7,25.08,93.73-9.79,90.06-62.76l-.37-5.25c-1.7-24.59-15.25-46.9-35.53-58.54l-121.72-69.84c-42.29-24.27-90.72,9.48-87.16,60.74h0C1374.58,339.67,1391.23,367.08,1416.14,381.38Z"/><path class="cls-4" d="M1299.31,346.54l111.06,63.73c43.71,25.07,93.74-9.79,90.06-62.76l-.36-5.26c-1.71-24.58-15.26-46.89-35.54-58.53l-121.71-69.84c-42.3-24.28-90.73,9.47-87.17,60.74h0C1257.75,304.82,1274.39,332.24,1299.31,346.54Z"/><path class="cls-4" d="M1382.08,394l111.07,63.73c43.7,25.07,93.73-9.79,90.06-62.76l-.37-5.26c-1.7-24.58-15.25-46.89-35.53-58.53l-145.45-83.4c-42.3-24.28-67,23-63.43,74.3h0C1340.52,352.26,1357.16,379.68,1382.08,394Z"/><path class="cls-12" d="M1525,372.05l-3.5,6.11a2.15,2.15,0,0,1-2.93.75l-7.83-3.21c-3.2-1.31-4.48,2.46-2.16,6.39l5.66,9.6a7.29,7.29,0,0,1,1.12,4.61l-1.33,8.17c-.55,3.35,2.8,8.07,5.66,8l7-.18a5.12,5.12,0,0,1,3.63,2.1l7,8.26c2.86,3.38,6.21,2.52,5.66-1.45l-1.34-9.71c-.21-1.58.21-2.82,1.13-3.32l5.66-3.06c2.31-1.26,1-6.51-2.17-8.89l-7.82-5.82a9,9,0,0,1-2.94-4.15l-3.5-10.15C1530.6,371.93,1526.46,369.54,1525,372.05Z"/><path class="cls-12" d="M1468.59,340.92l-3.5,6.12a2.17,2.17,0,0,1-2.94.75l-7.82-3.21c-3.2-1.32-4.48,2.46-2.17,6.39l5.66,9.6a7.36,7.36,0,0,1,1.13,4.61l-1.34,8.17c-.55,3.34,2.8,8.06,5.66,8l7-.18a5.06,5.06,0,0,1,3.63,2.09l7,8.26c2.86,3.39,6.21,2.53,5.66-1.45l-1.33-9.71c-.22-1.58.2-2.82,1.12-3.31L1492,374c2.32-1.25,1-6.5-2.16-8.89l-7.83-5.82a8.93,8.93,0,0,1-2.94-4.14L1475.59,345C1474.15,340.81,1470,338.42,1468.59,340.92Z"/><path class="cls-12" d="M1412.14,309.8l-3.5,6.11a2.17,2.17,0,0,1-2.94.75l-7.82-3.21c-3.2-1.31-4.48,2.46-2.16,6.39l5.66,9.6a7.29,7.29,0,0,1,1.12,4.61l-1.34,8.17c-.54,3.34,2.8,8.07,5.67,8l7-.18a5.12,5.12,0,0,1,3.64,2.1l7,8.26c2.87,3.38,6.21,2.52,5.67-1.45l-1.34-9.71c-.22-1.58.2-2.82,1.12-3.32l5.66-3.06c2.32-1.26,1-6.51-2.16-8.89l-7.82-5.82a9,9,0,0,1-2.94-4.15l-3.5-10.15C1417.71,309.68,1413.57,307.29,1412.14,309.8Z"/><path class="cls-12" d="M1355.69,278.67l-3.49,6.11a2.17,2.17,0,0,1-2.94.76l-7.83-3.21c-3.2-1.32-4.48,2.46-2.16,6.39l5.66,9.6a7.28,7.28,0,0,1,1.12,4.61l-1.33,8.17c-.55,3.34,2.8,8.06,5.66,8l7-.18A5.1,5.1,0,0,1,1361,321l7,8.26c2.86,3.38,6.21,2.53,5.66-1.45l-1.34-9.71c-.21-1.58.21-2.82,1.13-3.32l5.66-3.06c2.31-1.25,1-6.51-2.17-8.89l-7.82-5.82a9,9,0,0,1-2.94-4.15l-3.5-10.15C1361.26,278.56,1357.13,276.17,1355.69,278.67Z"/><path class="cls-12" d="M1301.82,248.82l-3.49,6.11a2.17,2.17,0,0,1-2.94.75l-7.83-3.21c-3.2-1.31-4.48,2.46-2.16,6.39l5.66,9.6a7.29,7.29,0,0,1,1.12,4.61l-1.33,8.17c-.55,3.35,2.8,8.07,5.66,8l7-.18a5.12,5.12,0,0,1,3.63,2.1l7,8.26c2.86,3.38,6.21,2.52,5.66-1.45l-1.34-9.71c-.21-1.58.21-2.82,1.13-3.32l5.66-3.06c2.31-1.26,1-6.51-2.17-8.89l-7.82-5.82a9,9,0,0,1-2.94-4.15l-3.5-10.15C1307.39,248.7,1303.26,246.31,1301.82,248.82Z"/><path class="cls-3" d="M1335.4,1528.47c-42-25.17-110.66-26.31-153.44-2.55s-43.43,63.42-1.47,88.58,109.9,26.33,153.47,3C1381.86,1592,1377.36,1553.63,1335.4,1528.47Z"/><path class="cls-10" d="M1333.93,1502.37c-42-25.16-110.66-26.3-153.44-2.54s-43.43,63.41-1.47,88.58,109.91,26.33,153.47,3C1380.39,1565.88,1375.89,1527.54,1333.93,1502.37Z"/><path class="cls-12" d="M1217.71,1567.62a5.23,5.23,0,0,1-5-6.68l12.45-42.75a5.21,5.21,0,1,1,10,2.91l-10,34.26,92.19-20.86a5.21,5.21,0,1,1,2.3,10.17l-100.82,22.82A5.63,5.63,0,0,1,1217.71,1567.62Z"/></g></g></svg>